<?xml version="1.0" encoding="utf-8"?>
<!-- Generator: Adobe Illustrator 16.0.0, SVG Export Plug-In . SVG Version: 6.00 Build 0)  -->
<!DOCTYPE svg PUBLIC "-//W3C//DTD SVG 1.1//EN" "http://www.w3.org/Graphics/SVG/1.1/DTD/svg11.dtd">
<svg version="1.1" id="Layer_1" xmlns="http://www.w3.org/2000/svg" xmlns:xlink="http://www.w3.org/1999/xlink" x="0px" y="0px"
	 width="1500px" height="1500px" viewBox="0 0 1500 1500" enable-background="new 0 0 1500 1500" xml:space="preserve">
<g>
	<path fill-rule="evenodd" clip-rule="evenodd" fill="#FFFFFF" d="M997.922,952.452c-1.847,0.907-3.215,1.26-4.08,2.054
		c-16.445,15.063-35.914,26.573-55.266,38.229c-6.908,4.161-13.659,8.541-20.682,12.54c-7.011,3.991-14.189,7.762-21.441,11.396
		c-9.192,4.604-18.563,8.917-27.794,13.457c-13.934,6.854-29.038,11.209-43.588,16.748c-0.801,0.307-1.849,0.166-2.566,0.556
		c-15.646,8.467-33.581,11.571-50.636,16.192c-17.828,4.827-36.106,9.212-54.876,10.839c-7.66,3.339-16.545,1.257-24.318,4.513
		c-2.212,0.928-5.229,0.313-7.877,0.373c-5.26,0.123-10.416-0.075-15.633,1.671c-3.542,1.186-7.842,0.516-11.797,0.729
		c-11.372,0.608-22.979-1.731-34.083,2.211c-13.155-0.505-26.355,1.664-39.51-1.381c-5.421-1.253-11.385-0.844-17.098-0.791
		c-14.095,0.127-27.839-1.896-41.591-4.47c-6.374-1.192-12.98-1.986-19.399-2.581c-14.91-1.38-29.231-4.739-43.482-8.398
		c-14.242-3.662-28.56-7.035-42.664-11.259c-32.745-9.812-63.448-23.515-93.706-38.067c-21.633-10.404-41.954-22.865-62.323-35.169
		c-5.065-3.057-9.69-6.727-14.373-10.27c-7.722-5.845-15.365-11.774-22.968-17.746c-8.266-6.491-16.636-12.886-24.608-19.662
		c-7.031-5.976-14.414-11.705-19.3-19.497c-1.47-2.346-4.129-4.123-6.373-6.034c-12.161-10.377-21.901-22.603-31.9-34.559
		c-10.256-12.261-19.818-25.023-29.095-37.912c-5.931-8.242-11.174-16.937-16.047-25.731c-9.422-17.001-19.056-33.95-27.288-51.423
		c-6.65-14.112-11.275-28.992-16.972-43.475c-4.97-12.632-7.854-25.719-10.925-38.775c-2.523-10.717-6.469-21.304-7.462-32.123
		c-0.798-8.684-2.325-17.287-3.995-25.714c-3.291-16.621-1.949-33.219-2.236-49.823c-0.291-16.711-0.554-33.442,0.132-50.133
		c0.386-9.365,1.876-18.78,4.539-27.946c0.33-1.141,0.635-2.303,0.765-3.474c0.964-8.612,1.457-17.291,2.941-25.829
		c1.144-6.569,3.675-12.931,5.308-19.445c5.194-20.698,11.018-41.281,19.431-61.088c4.521-10.642,8.111-21.633,14.12-31.831
		c6.375-10.822,11.159-22.4,17.415-33.285c6.424-11.175,13.553-22.041,20.809-32.803c6.139-9.106,12.64-18.02,19.732-26.581
		c9.41-11.359,18.937-22.592,28.91-33.586c17.941-19.783,38.661-37.018,58.878-54.69c11.248-9.833,23.524-18.853,36.436-27.045
		c8.963-5.686,17.569-11.829,26.585-17.443c7.555-4.703,15.23-9.339,23.284-13.293c18.922-9.288,37.734-18.867,57.271-27.001
		c23.814-9.918,48.378-18.36,73.754-24.632c13.019-3.214,26.105-6.203,39.181-9.223c5.491-1.268,11.02-2.423,16.563-3.492
		c3.399-0.655,6.888-0.934,10.288-1.585c10.235-1.955,20.73-2.114,31.009-4.212c9.767-1.993,19.97-2.945,30-3.076
		c29.623-0.385,59.258-0.283,88.886-0.062c10.935,0.081,21.697,2.071,32.395,4.092c1.285,0.242,2.553,0.747,3.837,0.776
		c16.738,0.379,32.72,4.614,48.997,7.45c28.859,5.03,56.316,14.146,84.016,22.527c10.779,3.261,21.191,7.706,31.36,12.345
		c19.224,8.773,38.457,17.602,57.099,27.319c13.596,7.086,26.433,15.405,39.273,23.604c11.067,7.073,21.663,14.748,32.463,22.16
		c0.352,0.241,0.714,0.473,1.038,0.739c12.371,10.144,25.463,19.676,36.904,30.607c12.627,12.058,25.312,24.167,36.395,37.51
		c4.976,5.988,11.004,11.258,16.07,17.189c5.34,6.246,10.19,12.835,15.098,19.367c18.987,25.26,34.826,52.113,49.699,79.462
		c4.629,8.514,8.953,17.037,11.954,26.225c3.95,12.081,9.934,23.627,13.865,35.712c5.743,17.665,10.754,35.537,15.438,53.456
		c1.889,7.224,0.892,15.141,3.348,22.135c2.824,8.042,1.208,16.525,4.64,24.384c1.07,2.448,0.45,5.5,0.568,8.277
		c0.405,9.455-1.335,19.039,2.438,28.305c0.721,1.765,0.301,3.95,0.2,5.932c-0.586,11.438,0.928,22.862-2.187,34.339
		c-1.837,6.766-0.354,14.253-0.469,21.415c-0.067,4.333,0.6,8.727-1.869,12.859c-0.779,1.3-0.705,3.104-0.703,4.677
		c0.013,15.462-4.902,30.227-7.531,45.315c-2.245,12.879-6.123,25.346-9.307,37.977c-2.02,7.999-5.694,15.648-8.333,23.534
		c-5.186,15.511-13.551,29.901-19.541,45.104c-7.553,19.167-20.489,35.816-30.505,53.816c-7.958,14.299-19.239,27.149-29.528,40.335
		c-10.075,12.911-19.789,26.136-32.755,37.008c-1.251,1.048-2.192,2.389-3.188,3.494c5.031,7.552,27.392,28.451,43.59,40.768
		c6.264-1.177,12.998-2.495,19.756-3.69c2.993-0.527,6.259-1.641,9.021-1.05c11.01,2.354,22.656,1.974,33.181,6.397
		c10.034,4.22,18.982,9.682,26.852,16.78c81.191,73.232,162.419,146.431,243.782,219.511c11.271,10.125,19.089,22.067,20.976,35.946
		c2.13,15.626,2.961,31.954-5.299,46.52c-6.317,11.146-13.253,22.386-26.318,29.053c-6.824,3.479-13.045,7.638-20.559,10.299
		c-15.023,5.318-30.563,4.31-45.631,2.989c-15.419-1.35-28.94-8.291-40.21-18.476c-54.28-49.06-108.712-97.982-163.109-146.933
		c-28.137-25.322-56.509-50.432-84.387-75.981c-11.605-10.638-19.417-23.318-20.215-38.771c-0.098-1.913-1.151-3.773-1.41-5.698
		c-0.527-3.888-1.567-7.891-1.016-11.685c0.78-5.369,2.64-10.635,4.363-15.858c1.142-3.455,0.361-6.178-2.394-8.67
		c-8.42-7.614-16.732-15.323-25.208-22.883C1008.183,960.933,1002.972,956.718,997.922,952.452z M609.793,992.525
		c9.729,0,19.458,0.077,29.184-0.027c7.011-0.074,13.909-0.611,20.927-1.604c8.168-1.155,16.371-2.451,24.575-3.557
		c8.641-1.165,17.312-2.274,25.842-3.938c18.834-3.673,37.409-8.303,55.589-14.049c14.444-4.564,29.18-8.465,42.78-15.074
		c6.141-2.982,12.866-4.978,19.245-7.583c3.994-1.632,8.047-3.272,11.707-5.418c17.647-10.323,35.637-20.127,52.963-30.962
		c19.944-12.472,37.175-27.585,55.523-41.605c9.076-6.937,16.035-15.711,23.732-23.838c5.391-5.688,11.416-10.772,16.442-16.887
		c15.136-18.406,29.941-36.96,42.371-56.975c3.198-5.15,6.776-10.128,9.648-15.419c3.46-6.385,6.171-13.093,9.536-19.524
		c4.292-8.206,8.672-16.269,11.27-25.18c2.773-9.497,7.768-18.459,10.679-27.933c4.301-13.989,8.723-27.958,11.756-42.28
		c1.327-6.272,1.249-12.649,2.783-18.729c3.714-14.718,5.456-29.503,5.195-44.573c-0.248-14.322,0.313-28.661-0.182-42.972
		c-0.34-9.832-0.469-19.975-3.297-29.342c-2.569-8.496-2.276-17.127-4.487-25.612c-3.785-14.541-6.67-29.328-11.824-43.51
		c-5.426-14.939-11.448-29.704-18.316-44.236c-9.986-21.128-21.144-41.579-34.932-60.882c-2.607-3.655-4.605-7.682-7.401-11.206
		c-5.596-7.061-11.648-13.827-17.334-20.831c-7.497-9.233-15.07-18.374-24.03-26.554c-5.538-5.057-11.72-9.615-15.414-16.218
		c-1.326-2.367-3.851-4.648-6.462-5.892c-9.235-4.396-15.334-11.851-22.762-18.007c-1.948-1.615-3.767-3.388-5.864-4.828
		c-10.79-7.413-21.592-14.815-32.516-22.069c-5.283-3.511-10.674-6.936-16.306-9.961c-7.898-4.245-16.554-7.46-24.021-12.216
		c-17.801-11.337-38.293-17.74-57.919-25.404c-19.192-7.497-39.902-11.867-59.999-17.464c-4.565-1.272-9.315-2.038-14.016-2.87
		c-11.135-1.97-22.217-4.408-33.458-5.597c-12.583-1.333-25.083-4.125-37.934-2.912c-1.261,0.119-2.762-0.061-3.857-0.595
		c-4.554-2.217-9.456-1.667-14.28-1.688c-10.169-0.051-20.34-0.028-30.511-0.008c-2.648,0.007-5.602-0.548-7.895,0.3
		c-7.683,2.832-15.63,1.886-23.509,2.085c-2.646,0.069-5.684-0.525-7.862,0.434c-8.609,3.785-18.49,0.854-27.018,4.537
		c-18.995,0.945-36.423,8.301-55.022,10.871c-34.085,10.404-67.713,21.801-98.741,38.513c-13.529,7.286-27.814,13.516-39.955,22.804
		c-3.664,2.804-7.672,5.239-11.476,7.899c-11.054,7.734-22.508,15.064-33,23.375c-10.267,8.134-19.763,17.099-29.196,26.039
		c-9.391,8.897-18.317,18.193-27.357,27.382c-1.129,1.147-1.614,2.785-2.589,4.078c-2.454,3.25-4.895,6.519-7.563,9.626
		c-6.168,7.181-12.49,14.192-17.479,22.192c-6.43,10.306-13.773,20.151-20.584,30.27c-2.036,3.027-4.312,6.149-5.236,9.506
		c-1.728,6.277-5.237,11.714-8.409,17.354c-1.993,3.54-4.067,7.074-5.646,10.768c-8.793,20.584-16.93,41.39-22.22,62.949
		c-2.438,9.938-7.198,19.507-6.543,30c-3.625,5.486-0.836,11.994-3.083,17.431c-2.427,5.877-2.113,11.666-2.295,17.574
		c-0.096,3.182,0.785,6.699-0.434,9.476c-3.065,6.977-2.307,14.105-2.129,21.176c0.301,11.833-0.829,23.617,2.114,35.516
		c2.245,9.082-0.756,18.985,3.355,28.114c0.672,17.013,5.758,33.323,10.12,49.713c2.651,9.961,6.432,19.681,9.667,29.518
		c5.981,18.188,14.82,35.346,23.348,52.613c4.458,9.023,9.625,17.701,15.575,26.005c7.351,10.259,12.663,21.648,21.464,31.114
		c3.099,3.331,5.669,7.053,8.705,10.438c10.439,11.648,19.256,24.474,31.692,34.691c3.834,3.151,6.546,7.383,10.028,10.913
		c2.917,2.958,6.077,5.748,9.365,8.374c3.927,3.134,8.243,5.877,12.141,9.04c5.245,4.26,9.918,9.132,15.43,13.068
		c9.571,6.835,19.697,13.035,29.41,19.713c15.729,10.816,32.576,20.014,49.984,28.415c18.974,9.16,38.557,17.083,58.678,24.018
		c26.633,9.181,53.817,16.343,81.946,20.806c7.375,1.17,14.915,1.285,22.089,2.819c13.737,2.942,27.466,4.953,41.625,4.542
		C593.866,992.336,601.833,992.525,609.793,992.525z"/>
	<path fill-rule="evenodd" clip-rule="evenodd" fill="#FFFFFF" d="M201.06,606.894c0-18.294-1.376-36.701,0.468-54.845
		c1.296-12.746,1.01-26.027,6.882-38.315c1.688-3.532,1.905-7.693,2.421-11.607c1.62-12.261,7.306-23.437,11.375-35.038
		c4.227-12.045,9.609-23.67,15.044-35.335c10.932-23.459,24.893-45.255,41.209-65.862c8.353-10.551,17.09-20.845,26.361-30.853
		c13.344-14.4,28.12-27.402,42.958-40.363c10.034-8.765,21.352-16.357,32.297-24.247c6.829-4.924,13.945-9.543,21.104-14.077
		c3.578-2.266,7.637-3.904,11.321-6.048c20.314-11.816,41.889-21.282,64.017-30.106c16.145-6.437,32.858-11.1,49.345-16.455
		c7.759-2.52,16.355-2.897,24.252-5.152c13.001-3.711,26.693-3.959,39.776-7.157c2.891-0.708,6.159-0.134,9.253-0.22
		c5.244-0.146,10.621,0.701,15.524-1.961c1.048-0.569,2.567-0.595,3.87-0.599c14.125-0.04,28.249-0.025,43.685-0.025
		c-1.07,2.169-1.313,4.054-2.282,4.428c-19.352,7.488-38.96,14.453-58.132,22.291c-10.356,4.232-21.098,8.035-30.234,14.449
		c-1.013,0.712-2.334,1.075-3.521,1.583c-30.262,12.925-57.666,30.112-84.923,47.32c-16.082,10.152-32.951,19.661-46.504,32.823
		c-13.267,6.624-20.832,19.339-34.166,25.894c-11.973,11.594-26.188,21.288-36.206,34.554c-1.228,1.625-2.998,2.912-4.489,4.379
		c-10.113,9.934-20.668,19.539-30.196,29.907c-9.719,10.581-18.662,21.763-27.511,32.959c-9.387,11.876-18.413,23.994-27.311,36.175
		c-5.284,7.232-10.009,14.792-14.995,22.198c-12.308,18.279-22.389,37.607-32.644,56.831c-8.531,15.991-16.281,32.318-22.841,49.077
		c-0.628,1.604-2.046,2.956-3.099,4.425C202.464,607.578,201.763,607.237,201.06,606.894z"/>
</g>
</svg>